<svg width="1150" height="372" viewBox="0 0 1150 372" fill="none" xmlns="http://www.w3.org/2000/svg">
<path fill-rule="evenodd" clip-rule="evenodd" d="M23.8112 1.93757C12.9692 5.83657 5.59222 13.1046 2.15822 23.2696C-0.239783 30.3686 0.544215 43.7876 3.74422 50.3976C6.95022 57.0196 13.5902 63.4756 20.5542 66.7396C25.4162 69.0186 27.5672 69.4076 35.2502 69.3946C46.6482 69.3756 51.6852 67.2326 59.7862 58.9536L65.6492 52.9626L92.9492 61.4966C118.819 69.5846 160.904 83.0296 183.619 90.4646C189.322 92.3316 195.88 94.9676 198.193 96.3236C204.963 100.291 212.416 107.588 215.958 113.715L219.25 119.41L219.517 230.16C219.664 291.073 219.536 340.91 219.234 340.91C218.931 340.91 216.561 339.844 213.967 338.541C207.546 335.315 175.479 324.596 125.75 309.051C72.4332 292.384 51.0182 285.91 49.2042 285.91C47.9422 285.91 47.7502 273.326 47.7502 190.633C47.7502 84.8296 48.2372 92.2646 41.1112 89.2866C36.9382 87.5436 33.1382 88.3416 29.5002 91.7256L26.7502 94.2836V197.026C26.7502 307.828 26.4452 301.081 31.5782 303.813C33.0122 304.576 64.9832 314.591 99.2502 325.013C104.75 326.685 111.05 328.669 113.25 329.42C115.45 330.172 124.675 333.096 133.75 335.919C207.266 358.781 211.825 360.501 221.532 369.024C226.682 373.546 230.308 373.014 245.391 365.527C252.463 362.016 264.55 356.634 272.25 353.568C294.571 344.678 383.481 311.748 402.75 305.233C410.475 302.621 413.281 300.974 415.019 298.032C416.569 295.408 416.707 285.209 416.787 167.307L416.873 39.4276L414.701 37.6686C413.506 36.7016 411.533 35.9096 410.316 35.9096C409.099 35.9096 396.661 39.6746 382.676 44.2756C368.692 48.8776 338.35 58.8016 315.25 66.3296C248.346 88.1346 249.043 87.8816 240.745 93.4096L233.24 98.4096L226.745 91.5286C219.538 83.8926 208.491 75.9606 200.892 72.9656C198.158 71.8876 187.445 68.3116 177.086 65.0186C166.726 61.7246 143.4 54.3066 125.25 48.5346C107.1 42.7616 87.3222 36.5036 81.2982 34.6276C75.2752 32.7526 70.0292 30.5856 69.6412 29.8136C69.2532 29.0416 68.4382 26.5376 67.8302 24.2496C67.2212 21.9616 65.2302 17.9116 63.4032 15.2496C54.4662 2.22157 38.2152 -3.24243 23.8112 1.93757ZM41.9302 24.2276C48.4442 28.2086 49.5332 38.5876 44.0162 44.1056C38.2962 49.8246 28.4422 48.7376 24.4302 41.9446C22.0112 37.8496 22.2462 30.8206 24.9152 27.4266C29.0012 22.2316 36.3902 20.8426 41.9302 24.2276ZM396.75 173.252V283.593L392.5 284.855C384.863 287.121 329.065 307.1 308.75 314.841C304.625 316.413 290.9 321.592 278.25 326.349C265.6 331.107 251.998 336.329 248.023 337.955C244.048 339.58 240.551 340.91 240.251 340.91C239.951 340.91 239.829 292.647 239.978 233.66L240.25 126.41L243.15 121.177C248.27 111.937 251.992 109.904 281.176 100.405C295.517 95.7376 326.825 85.4116 350.75 77.4576C374.675 69.5036 394.813 62.9766 395.5 62.9526C396.493 62.9186 396.75 85.6216 396.75 173.252ZM436.25 91.3486C435.7 91.5606 434.013 92.0076 432.5 92.3416L429.75 92.9476V200.822C429.75 302.621 429.651 308.736 428 309.41C427.038 309.802 418.15 312.956 408.25 316.417C354.851 335.087 324.75 347.552 320.734 352.658C317.71 356.502 318.101 362.152 321.668 366.144C326.155 371.166 329.822 370.564 352.928 361.018C370.385 353.805 417.982 335.914 437.75 329.134C442.002 327.676 446.441 325.371 448 323.813L450.75 321.064V208.661V96.2586L448.443 94.0916C446.306 92.0836 438.75 90.3836 436.25 91.3486Z" fill="white"/>
<path d="M515.6 128.8C509.6 128.8 504.667 127.067 500.8 123.6C497.067 120 495.2 115.6 495.2 110.4C495.2 105.067 497.067 100.667 500.8 97.2C504.667 93.6 509.6 91.8 515.6 91.8C521.467 91.8 526.267 93.6 530 97.2C533.867 100.667 535.8 105.067 535.8 110.4C535.8 115.6 533.867 120 530 123.6C526.267 127.067 521.467 128.8 515.6 128.8ZM532.6 140.4V252H498.4V140.4H532.6ZM643.384 167.6V196H555.384V167.6H643.384ZM773.4 276L755.4 251.8C750.067 252.867 744.867 253.4 739.8 253.4C726.6 253.4 714.467 250.333 703.4 244.2C692.467 238.067 683.733 229.533 677.2 218.6C670.8 207.533 667.6 195.133 667.6 181.4C667.6 167.667 670.8 155.333 677.2 144.4C683.733 133.467 692.467 124.933 703.4 118.8C714.467 112.667 726.6 109.6 739.8 109.6C753 109.6 765.067 112.667 776 118.8C787.067 124.933 795.733 133.467 802 144.4C808.4 155.333 811.6 167.667 811.6 181.4C811.6 193.4 809.133 204.4 804.2 214.4C799.4 224.267 792.667 232.467 784 239L814.8 276H773.4ZM702.6 181.4C702.6 193.8 705.933 203.733 712.6 211.2C719.4 218.533 728.467 222.2 739.8 222.2C751 222.2 759.933 218.467 766.6 211C773.4 203.533 776.8 193.667 776.8 181.4C776.8 169 773.4 159.133 766.6 151.8C759.933 144.333 751 140.6 739.8 140.6C728.467 140.6 719.4 144.267 712.6 151.6C705.933 158.933 702.6 168.867 702.6 181.4ZM865.217 104V252H831.017V104H865.217ZM883.202 196C883.202 184.533 885.335 174.467 889.602 165.8C894.002 157.133 899.935 150.467 907.402 145.8C914.868 141.133 923.202 138.8 932.402 138.8C940.268 138.8 947.135 140.4 953.002 143.6C959.002 146.8 963.602 151 966.802 156.2V140.4H1001V252H966.802V236.2C963.468 241.4 958.802 245.6 952.802 248.8C946.935 252 940.068 253.6 932.202 253.6C923.135 253.6 914.868 251.267 907.402 246.6C899.935 241.8 894.002 235.067 889.602 226.4C885.335 217.6 883.202 207.467 883.202 196ZM966.802 196.2C966.802 187.667 964.402 180.933 959.602 176C954.935 171.067 949.202 168.6 942.402 168.6C935.602 168.6 929.802 171.067 925.002 176C920.335 180.8 918.002 187.467 918.002 196C918.002 204.533 920.335 211.333 925.002 216.4C929.802 221.333 935.602 223.8 942.402 223.8C949.202 223.8 954.935 221.333 959.602 216.4C964.402 211.467 966.802 204.733 966.802 196.2ZM1059.94 156.2C1063.14 151 1067.74 146.8 1073.74 143.6C1079.74 140.4 1086.61 138.8 1094.34 138.8C1103.54 138.8 1111.88 141.133 1119.34 145.8C1126.81 150.467 1132.68 157.133 1136.94 165.8C1141.34 174.467 1143.54 184.533 1143.54 196C1143.54 207.467 1141.34 217.6 1136.94 226.4C1132.68 235.067 1126.81 241.8 1119.34 246.6C1111.88 251.267 1103.54 253.6 1094.34 253.6C1086.48 253.6 1079.61 252.067 1073.74 249C1067.88 245.8 1063.28 241.6 1059.94 236.4V252H1025.74V104H1059.94V156.2ZM1108.74 196C1108.74 187.467 1106.34 180.8 1101.54 176C1096.88 171.067 1091.08 168.6 1084.14 168.6C1077.34 168.6 1071.54 171.067 1066.74 176C1062.08 180.933 1059.74 187.667 1059.74 196.2C1059.74 204.733 1062.08 211.467 1066.74 216.4C1071.54 221.333 1077.34 223.8 1084.14 223.8C1090.94 223.8 1096.74 221.333 1101.54 216.4C1106.34 211.333 1108.74 204.533 1108.74 196Z" fill="white"/>
<path d="M516.28 306.52C516.28 309.747 515.547 312.653 514.08 315.24C512.613 317.8 510.613 319.787 508.08 321.2L513.36 328.04H507.56L503.68 322.84C502.373 323.133 501.053 323.28 499.72 323.28C497.373 323.28 495.307 322.787 493.52 321.8C491.733 320.813 490.347 319.427 489.36 317.64C488.373 315.853 487.88 313.827 487.88 311.56C487.88 308.387 488.587 305.533 490 303C491.44 300.44 493.413 298.44 495.92 297C498.453 295.56 501.28 294.84 504.4 294.84C506.773 294.84 508.853 295.333 510.64 296.32C512.427 297.307 513.813 298.693 514.8 300.48C515.787 302.24 516.28 304.253 516.28 306.52ZM492.6 311.28C492.6 313.707 493.28 315.627 494.64 317.04C496.027 318.453 497.933 319.16 500.36 319.16C502.547 319.16 504.48 318.6 506.16 317.48C507.867 316.36 509.187 314.867 510.12 313C511.08 311.107 511.56 309.053 511.56 306.84C511.56 304.413 510.867 302.507 509.48 301.12C508.12 299.707 506.213 299 503.76 299C501.573 299 499.627 299.56 497.92 300.68C496.24 301.773 494.933 303.253 494 305.12C493.067 306.987 492.6 309.04 492.6 311.28ZM542.244 300.96L538.364 323H533.804L534.244 320.4C533.364 321.307 532.298 322.027 531.044 322.56C529.818 323.067 528.551 323.32 527.244 323.32C524.924 323.32 523.071 322.693 521.684 321.44C520.298 320.187 519.604 318.413 519.604 316.12C519.604 315.507 519.671 314.773 519.804 313.92L522.084 300.96H526.604L524.444 313.24C524.338 313.987 524.284 314.52 524.284 314.84C524.284 316.307 524.684 317.427 525.484 318.2C526.311 318.973 527.444 319.36 528.884 319.36C530.564 319.36 531.991 318.867 533.164 317.88C534.338 316.867 535.111 315.413 535.484 313.52L537.684 300.96H542.244ZM552.141 304.84C553.048 303.507 554.114 302.467 555.341 301.72C556.594 300.973 557.981 300.6 559.501 300.6L558.661 305.32H557.501C555.741 305.32 554.328 305.76 553.261 306.64C552.194 307.52 551.448 309.04 551.021 311.2L548.941 323H544.381L548.261 300.96H552.821L552.141 304.84ZM560.173 311.88C560.573 309.667 561.373 307.707 562.573 306C563.799 304.293 565.293 302.973 567.053 302.04C568.813 301.08 570.653 300.6 572.573 300.6C574.306 300.6 575.759 300.947 576.933 301.64C578.106 302.307 578.986 303.147 579.573 304.16L580.133 300.96H584.733L580.852 323H576.253L576.853 319.72C575.893 320.76 574.679 321.627 573.213 322.32C571.773 323.013 570.199 323.36 568.493 323.36C566.839 323.36 565.359 322.987 564.053 322.24C562.773 321.493 561.759 320.44 561.013 319.08C560.293 317.693 559.933 316.107 559.933 314.32C559.933 313.52 560.013 312.707 560.173 311.88ZM578.213 311.96C578.319 311.453 578.373 310.907 578.373 310.32C578.373 308.533 577.839 307.133 576.773 306.12C575.733 305.08 574.426 304.56 572.853 304.56C571.679 304.56 570.533 304.853 569.413 305.44C568.293 306 567.319 306.84 566.493 307.96C565.666 309.053 565.119 310.36 564.853 311.88C564.746 312.387 564.692 312.933 564.692 313.52C564.692 315.333 565.213 316.773 566.253 317.84C567.319 318.88 568.639 319.4 570.213 319.4C571.386 319.4 572.533 319.107 573.653 318.52C574.773 317.933 575.746 317.08 576.573 315.96C577.399 314.813 577.946 313.48 578.213 311.96ZM601.922 300.6C604.242 300.6 606.082 301.227 607.442 302.48C608.829 303.707 609.522 305.48 609.522 307.8C609.522 308.387 609.455 309.12 609.322 310L607.002 323H602.482L604.682 310.68C604.789 309.933 604.842 309.4 604.842 309.08C604.842 307.613 604.429 306.493 603.602 305.72C602.802 304.947 601.682 304.56 600.242 304.56C598.509 304.56 597.042 305.093 595.842 306.16C594.669 307.2 593.922 308.707 593.602 310.68V310.56L591.402 323H586.842L590.722 300.96H595.282L594.842 303.52C595.749 302.613 596.815 301.907 598.042 301.4C599.295 300.867 600.589 300.6 601.922 300.6ZM646.091 295.2L645.451 298.76H633.651L632.171 307.2H641.371L640.731 310.72H631.531L629.371 323H624.811L629.731 295.2H646.091ZM653.157 304.84C654.063 303.507 655.13 302.467 656.357 301.72C657.61 300.973 658.997 300.6 660.517 300.6L659.677 305.32H658.517C656.757 305.32 655.343 305.76 654.277 306.64C653.21 307.52 652.463 309.04 652.037 311.2L649.957 323H645.397L649.277 300.96H653.837L653.157 304.84ZM667.468 298.04C666.748 298.04 666.161 297.813 665.708 297.36C665.255 296.907 665.028 296.333 665.028 295.64C665.028 294.707 665.375 293.907 666.068 293.24C666.788 292.547 667.601 292.2 668.508 292.2C669.228 292.2 669.801 292.427 670.228 292.88C670.681 293.333 670.908 293.907 670.908 294.6C670.908 295.533 670.561 296.347 669.868 297.04C669.175 297.707 668.375 298.04 667.468 298.04ZM669.188 300.96L665.308 323H660.748L664.628 300.96H669.188ZM684.735 300.6C687.482 300.6 689.668 301.373 691.295 302.92C692.948 304.467 693.775 306.547 693.775 309.16C693.775 309.773 693.708 310.507 693.575 311.36C693.468 311.947 693.282 312.667 693.015 313.52H676.175C676.148 313.707 676.135 313.987 676.135 314.36C676.135 315.933 676.615 317.187 677.575 318.12C678.562 319.053 679.842 319.52 681.415 319.52C683.895 319.52 685.802 318.493 687.135 316.44H692.055C691.042 318.467 689.548 320.133 687.575 321.44C685.602 322.72 683.322 323.36 680.735 323.36C678.895 323.36 677.282 323 675.895 322.28C674.508 321.56 673.428 320.533 672.655 319.2C671.882 317.84 671.495 316.253 671.495 314.44C671.495 313.667 671.575 312.84 671.735 311.96C672.135 309.693 672.948 307.707 674.175 306C675.402 304.267 676.922 302.933 678.735 302C680.575 301.067 682.575 300.6 684.735 300.6ZM689.015 310.24C689.068 309.76 689.095 309.413 689.095 309.2C689.095 307.733 688.602 306.573 687.615 305.72C686.655 304.867 685.402 304.44 683.855 304.44C682.228 304.44 680.762 304.96 679.455 306C678.148 307.04 677.255 308.453 676.775 310.24H689.015ZM711.063 300.6C713.383 300.6 715.223 301.227 716.583 302.48C717.969 303.707 718.663 305.48 718.663 307.8C718.663 308.387 718.596 309.12 718.463 310L716.143 323H711.623L713.823 310.68C713.929 309.933 713.983 309.4 713.983 309.08C713.983 307.613 713.569 306.493 712.743 305.72C711.943 304.947 710.823 304.56 709.383 304.56C707.649 304.56 706.183 305.093 704.983 306.16C703.809 307.2 703.063 308.707 702.743 310.68V310.56L700.543 323H695.983L699.863 300.96H704.423L703.983 303.52C704.889 302.613 705.956 301.907 707.183 301.4C708.436 300.867 709.729 300.6 711.063 300.6ZM722.399 311.88C722.799 309.667 723.599 307.707 724.799 306C726.026 304.293 727.519 302.973 729.279 302.04C731.039 301.08 732.892 300.6 734.839 300.6C736.279 300.6 737.639 300.92 738.919 301.56C740.199 302.173 741.172 303 741.839 304.04L743.719 293.4H748.319L743.079 323H738.479L739.079 319.68C738.119 320.773 736.919 321.667 735.479 322.36C734.066 323.027 732.506 323.36 730.799 323.36C729.119 323.36 727.626 322.987 726.319 322.24C725.012 321.493 723.986 320.44 723.239 319.08C722.519 317.693 722.159 316.107 722.159 314.32C722.159 313.52 722.239 312.707 722.399 311.88ZM740.439 311.96C740.546 311.453 740.599 310.907 740.599 310.32C740.599 308.533 740.066 307.133 738.999 306.12C737.959 305.08 736.652 304.56 735.079 304.56C733.906 304.56 732.759 304.853 731.639 305.44C730.519 306 729.546 306.84 728.719 307.96C727.892 309.053 727.346 310.36 727.079 311.88C726.972 312.387 726.919 312.933 726.919 313.52C726.919 315.333 727.439 316.773 728.479 317.84C729.546 318.88 730.866 319.4 732.439 319.4C733.612 319.4 734.759 319.107 735.879 318.52C736.999 317.933 737.972 317.08 738.799 315.96C739.626 314.813 740.172 313.48 740.439 311.96ZM758.868 293.4L753.628 323H749.068L754.308 293.4H758.868ZM765.975 300.96L769.215 317.76L778.615 300.96H783.335L764.135 333.36H759.415L765.775 322.64L760.895 300.96H765.975ZM788.857 317.52L782.097 328.56H779.137L783.897 317.52H788.857ZM826.753 295.2L826.113 298.76H818.713L814.433 323H809.873L814.153 298.76H806.713L807.353 295.2H826.753ZM826.891 311.88C827.291 309.667 828.091 307.707 829.291 306C830.518 304.293 832.011 302.973 833.771 302.04C835.531 301.08 837.371 300.6 839.291 300.6C841.025 300.6 842.478 300.947 843.651 301.64C844.825 302.307 845.705 303.147 846.291 304.16L846.851 300.96H851.451L847.571 323H842.971L843.571 319.72C842.611 320.76 841.398 321.627 839.931 322.32C838.491 323.013 836.918 323.36 835.211 323.36C833.558 323.36 832.078 322.987 830.771 322.24C829.491 321.493 828.478 320.44 827.731 319.08C827.011 317.693 826.651 316.107 826.651 314.32C826.651 313.52 826.731 312.707 826.891 311.88ZM844.931 311.96C845.038 311.453 845.091 310.907 845.091 310.32C845.091 308.533 844.558 307.133 843.491 306.12C842.451 305.08 841.145 304.56 839.571 304.56C838.398 304.56 837.251 304.853 836.131 305.44C835.011 306 834.038 306.84 833.211 307.96C832.385 309.053 831.838 310.36 831.571 311.88C831.465 312.387 831.411 312.933 831.411 313.52C831.411 315.333 831.931 316.773 832.971 317.84C834.038 318.88 835.358 319.4 836.931 319.4C838.105 319.4 839.251 319.107 840.371 318.52C841.491 317.933 842.465 317.08 843.291 315.96C844.118 314.813 844.665 313.48 844.931 311.96ZM860.281 298.04C859.561 298.04 858.974 297.813 858.521 297.36C858.067 296.907 857.841 296.333 857.841 295.64C857.841 294.707 858.187 293.907 858.881 293.24C859.601 292.547 860.414 292.2 861.321 292.2C862.041 292.2 862.614 292.427 863.041 292.88C863.494 293.333 863.721 293.907 863.721 294.6C863.721 295.533 863.374 296.347 862.681 297.04C861.987 297.707 861.187 298.04 860.281 298.04ZM857.361 327.32C856.987 329.48 856.174 331.04 854.921 332C853.667 332.987 852.014 333.48 849.961 333.48H847.601L848.281 329.64H849.841C850.774 329.64 851.467 329.453 851.921 329.08C852.374 328.733 852.667 328.147 852.801 327.32L857.441 300.96H862.001L857.361 327.32ZM897.588 300.96L886.868 323H882.068L880.548 306.72L873.188 323H868.388L865.388 300.96H870.028L871.548 318.68L879.308 300.96H884.068L885.468 318.6L893.108 300.96H897.588ZM903.835 298.04C903.115 298.04 902.529 297.813 902.075 297.36C901.622 296.907 901.395 296.333 901.395 295.64C901.395 294.707 901.742 293.907 902.435 293.24C903.155 292.547 903.969 292.2 904.875 292.2C905.595 292.2 906.169 292.427 906.595 292.88C907.049 293.333 907.275 293.907 907.275 294.6C907.275 295.533 906.929 296.347 906.235 297.04C905.542 297.707 904.742 298.04 903.835 298.04ZM905.555 300.96L901.675 323H897.115L900.995 300.96H905.555ZM908.102 311.88C908.502 309.667 909.302 307.707 910.502 306C911.729 304.293 913.222 302.973 914.982 302.04C916.742 301.08 918.596 300.6 920.542 300.6C921.982 300.6 923.342 300.92 924.622 301.56C925.902 302.173 926.876 303 927.542 304.04L929.422 293.4H934.022L928.782 323H924.182L924.782 319.68C923.822 320.773 922.622 321.667 921.182 322.36C919.769 323.027 918.209 323.36 916.502 323.36C914.822 323.36 913.329 322.987 912.022 322.24C910.716 321.493 909.689 320.44 908.942 319.08C908.222 317.693 907.862 316.107 907.862 314.32C907.862 313.52 907.942 312.707 908.102 311.88ZM926.142 311.96C926.249 311.453 926.302 310.907 926.302 310.32C926.302 308.533 925.769 307.133 924.702 306.12C923.662 305.08 922.356 304.56 920.782 304.56C919.609 304.56 918.462 304.853 917.342 305.44C916.222 306 915.249 306.84 914.422 307.96C913.596 309.053 913.049 310.36 912.782 311.88C912.676 312.387 912.622 312.933 912.622 313.52C912.622 315.333 913.142 316.773 914.182 317.84C915.249 318.88 916.569 319.4 918.142 319.4C919.316 319.4 920.462 319.107 921.582 318.52C922.702 317.933 923.676 317.08 924.502 315.96C925.329 314.813 925.876 313.48 926.142 311.96ZM955.604 298.72L954.124 307.16H963.724L963.124 310.68H953.524L951.964 319.44H962.764L962.124 323H946.764L951.684 295.16H967.044L966.404 298.72H955.604ZM968.18 311.88C968.58 309.667 969.38 307.707 970.58 306C971.807 304.293 973.3 302.973 975.06 302.04C976.82 301.08 978.66 300.6 980.58 300.6C982.314 300.6 983.767 300.947 984.94 301.64C986.114 302.307 986.994 303.147 987.58 304.16L988.14 300.96H992.74L988.86 323H984.26L984.86 319.72C983.9 320.76 982.687 321.627 981.22 322.32C979.78 323.013 978.207 323.36 976.5 323.36C974.847 323.36 973.367 322.987 972.06 322.24C970.78 321.493 969.767 320.44 969.02 319.08C968.3 317.693 967.94 316.107 967.94 314.32C967.94 313.52 968.02 312.707 968.18 311.88ZM986.22 311.96C986.327 311.453 986.38 310.907 986.38 310.32C986.38 308.533 985.847 307.133 984.78 306.12C983.74 305.08 982.434 304.56 980.86 304.56C979.687 304.56 978.54 304.853 977.42 305.44C976.3 306 975.327 306.84 974.5 307.96C973.674 309.053 973.127 310.36 972.86 311.88C972.754 312.387 972.7 312.933 972.7 313.52C972.7 315.333 973.22 316.773 974.26 317.84C975.327 318.88 976.647 319.4 978.22 319.4C979.394 319.4 980.54 319.107 981.66 318.52C982.78 317.933 983.754 317.08 984.58 315.96C985.407 314.813 985.954 313.48 986.22 311.96ZM1002.97 323.36C1001.45 323.36 1000.06 323.107 998.81 322.6C997.556 322.067 996.57 321.333 995.85 320.4C995.13 319.44 994.77 318.347 994.77 317.12C994.77 316.907 994.796 316.613 994.85 316.24H999.29C999.183 317.253 999.49 318.093 1000.21 318.76C1000.93 319.427 1001.94 319.76 1003.25 319.76C1004.53 319.76 1005.58 319.533 1006.41 319.08C1007.24 318.627 1007.65 317.96 1007.65 317.08C1007.65 316.333 1007.3 315.733 1006.61 315.28C1005.94 314.827 1004.86 314.32 1003.37 313.76C1001.96 313.2 1000.81 312.68 999.93 312.2C999.05 311.72 998.29 311.067 997.65 310.24C997.01 309.387 996.69 308.333 996.69 307.08C996.69 305.8 997.05 304.68 997.77 303.72C998.516 302.733 999.543 301.973 1000.85 301.44C1002.18 300.88 1003.7 300.6 1005.41 300.6C1006.96 300.6 1008.33 300.867 1009.53 301.4C1010.76 301.907 1011.7 302.64 1012.37 303.6C1013.06 304.533 1013.41 305.613 1013.41 306.84C1013.41 307.213 1013.4 307.493 1013.37 307.68H1009.05C1009.16 306.64 1008.85 305.8 1008.13 305.16C1007.44 304.52 1006.44 304.2 1005.13 304.2C1003.98 304.2 1003.05 304.44 1002.33 304.92C1001.64 305.4 1001.29 306.053 1001.29 306.88C1001.29 307.707 1001.65 308.373 1002.37 308.88C1003.09 309.36 1004.2 309.893 1005.69 310.48C1007.05 311.013 1008.16 311.52 1009.01 312C1009.86 312.48 1010.6 313.12 1011.21 313.92C1011.82 314.72 1012.13 315.72 1012.13 316.92C1012.13 318.227 1011.73 319.373 1010.93 320.36C1010.16 321.32 1009.08 322.067 1007.69 322.6C1006.3 323.107 1004.73 323.36 1002.97 323.36ZM1022.58 300.96L1025.82 317.76L1035.22 300.96H1039.94L1020.74 333.36H1016.02L1022.38 322.64L1017.5 300.96H1022.58Z" fill="white"/>
<path d="M281.351 235.924C278.265 236.464 275.497 236.407 273.047 235.752C270.604 235.131 268.586 233.944 266.993 232.193C265.44 230.468 264.421 228.227 263.939 225.468C263.732 224.286 263.64 223.084 263.663 221.862C263.719 220.634 263.907 219.484 264.227 218.413C264.547 217.342 265.017 216.448 265.636 215.73C266.288 215.007 267.122 214.556 268.14 214.378C268.994 214.229 269.731 214.286 270.353 214.55C270.974 214.813 271.456 215.152 271.8 215.565C272.176 215.973 272.395 216.358 272.458 216.719C271.888 217.327 271.392 217.972 270.97 218.655C270.575 219.299 270.313 220.123 270.184 221.127C270.082 222.092 270.169 223.363 270.445 224.939C270.858 227.303 271.913 228.98 273.609 229.969C275.338 230.953 277.647 231.191 280.536 230.686C283.032 230.249 284.691 229.384 285.513 228.089C286.374 226.822 286.561 224.793 286.072 222.002L282.712 202.794C282.568 201.973 282.666 201.177 283.005 200.407C283.338 199.605 284.112 199.097 285.327 198.884C286.542 198.672 287.442 198.886 288.028 199.528C288.609 200.137 288.971 200.852 289.114 201.673L292.475 220.882C293.153 224.756 292.642 228.026 290.943 230.692C289.244 233.358 286.047 235.102 281.351 235.924ZM274.344 200.806C273.326 200.984 272.396 200.792 271.553 200.228C270.737 199.627 270.245 198.85 270.079 197.898C269.906 196.913 270.105 196.015 270.674 195.205C271.275 194.389 272.085 193.892 273.103 193.714C274.055 193.547 274.936 193.748 275.747 194.317C276.59 194.88 277.097 195.654 277.27 196.639C277.436 197.592 277.221 198.492 276.625 199.341C276.057 200.151 275.296 200.639 274.344 200.806ZM303.796 220.017C302.581 220.23 301.684 220.032 301.103 219.423C300.517 218.781 300.152 218.049 300.009 217.228L296.174 195.311C295.967 194.129 295.67 193.302 295.283 192.828C294.895 192.354 294.506 192.067 294.117 191.966C293.727 191.865 293.425 191.782 293.21 191.718C293.164 191.456 293.21 191.042 293.348 190.476C293.519 189.905 293.846 189.357 294.33 188.832C294.846 188.302 295.597 187.951 296.582 187.778C297.534 187.612 298.401 187.731 299.182 188.136C299.991 188.502 300.67 189.094 301.219 189.911C301.768 190.729 302.143 191.712 302.344 192.861L306.429 216.207C306.561 216.962 306.46 217.741 306.127 218.544C305.788 219.314 305.011 219.805 303.796 220.017ZM320.215 217.145L319.302 211.924L324.374 211.036L325.288 216.257L320.215 217.145ZM316.18 229.475C315.359 229.618 314.638 229.558 314.016 229.295C313.395 229.031 312.893 228.679 312.512 228.238C312.169 227.825 311.968 227.454 311.911 227.125C312.508 226.479 312.996 225.785 313.374 225.042C313.751 224.299 313.98 223.379 314.058 222.283C314.176 221.213 314.094 219.874 313.812 218.265L310.21 197.678C310.044 196.726 310.21 195.935 310.709 195.306C311.235 194.639 311.958 194.225 312.877 194.064C313.829 193.897 314.65 194.041 315.339 194.496C316.022 194.918 316.446 195.605 316.613 196.557L320.215 217.145C320.468 218.589 320.581 220.008 320.553 221.4C320.559 222.786 320.408 224.048 320.099 225.185C319.829 226.349 319.371 227.309 318.725 228.065C318.079 228.821 317.23 229.291 316.18 229.475ZM325.288 216.257L324.374 211.036C324.736 210.973 325.025 211.176 325.243 211.646C325.487 212.077 325.678 212.686 325.816 213.474C325.954 214.262 325.984 214.917 325.906 215.438C325.855 215.921 325.649 216.194 325.288 216.257ZM351.8 211.618C349.961 211.94 348.231 211.82 346.61 211.257C345.021 210.689 343.674 209.758 342.568 208.462C341.494 207.161 340.799 205.608 340.483 203.802L346.886 202.682C347.001 203.338 347.233 203.991 347.584 204.641C347.929 205.257 348.385 205.736 348.952 206.076C349.519 206.417 350.164 206.524 350.886 206.398L353.398 205.958L354.311 211.179L351.8 211.618ZM325.302 216.255L324.389 211.034L337.785 208.69C338.902 208.495 339.695 208 340.165 207.208C340.636 206.415 340.756 205.361 340.526 204.048L338.966 195.134C338.725 195.108 338.388 195.116 337.956 195.158C337.517 195.167 337.052 195.215 336.559 195.301C334.852 195.6 333.66 196.333 332.985 197.5C332.309 198.667 332.175 200.416 332.583 202.748C332.951 204.849 333.607 206.375 334.552 207.327C335.53 208.272 336.788 208.695 338.327 208.595L338.592 213.879C336.653 214.015 334.818 213.778 333.086 213.167C331.382 212.517 329.908 211.439 328.663 209.931C327.444 208.384 326.617 206.363 326.18 203.868C325.531 200.158 326.06 197.087 327.767 194.657C329.506 192.22 332.133 190.695 335.646 190.08C338.24 189.626 340.433 189.784 342.226 190.553C344.046 191.284 345.093 192.437 345.369 194.013L346.929 202.928C347.239 204.701 347.091 206.368 346.484 207.929C345.905 209.452 344.948 210.753 343.614 211.832C342.274 212.879 340.636 213.572 338.699 213.911L325.302 216.255ZM325.302 216.255C324.974 216.312 324.687 216.125 324.443 215.694C324.192 215.231 323.998 214.605 323.86 213.817C323.723 213.029 323.695 212.39 323.779 211.902C323.857 211.381 324.06 211.091 324.389 211.034L325.302 216.255ZM354.311 211.179L353.398 205.958C353.759 205.895 354.049 206.098 354.266 206.568C354.511 206.999 354.702 207.608 354.84 208.396C354.978 209.184 355.008 209.839 354.93 210.36C354.879 210.843 354.673 211.116 354.311 211.179ZM339.032 185.935C338.178 186.084 337.369 185.904 336.603 185.395C335.87 184.88 335.426 184.18 335.27 183.293C335.115 182.407 335.295 181.597 335.81 180.864C336.357 180.125 337.058 179.681 337.912 179.532C338.831 179.371 339.641 179.551 340.341 180.071C341.074 180.586 341.518 181.287 341.673 182.173C341.828 183.06 341.649 183.869 341.134 184.602C340.652 185.33 339.951 185.774 339.032 185.935ZM331.053 187.331C330.199 187.48 329.39 187.3 328.624 186.791C327.891 186.277 327.447 185.576 327.292 184.689C327.137 183.803 327.316 182.993 327.831 182.26C328.379 181.521 329.079 181.077 329.933 180.928C330.819 180.773 331.629 180.953 332.362 181.467C333.095 181.982 333.539 182.683 333.694 183.569C333.85 184.456 333.67 185.265 333.155 185.998C332.64 186.731 331.94 187.175 331.053 187.331ZM354.305 211.18L353.391 205.959L355.903 205.52C356.659 205.388 357.229 205.068 357.614 204.561C358.031 204.048 358.298 203.443 358.413 202.746C358.522 202.016 358.519 201.323 358.404 200.666L355.647 184.906C355.44 183.724 355.143 182.896 354.755 182.422C354.368 181.948 353.979 181.661 353.589 181.56C353.199 181.459 352.897 181.377 352.683 181.313C352.631 181.017 352.677 180.603 352.821 180.07C352.992 179.499 353.319 178.951 353.802 178.427C354.319 177.896 355.053 177.548 356.005 177.381C356.99 177.209 357.873 177.325 358.655 177.73C359.463 178.096 360.142 178.688 360.691 179.505C361.241 180.323 361.616 181.306 361.817 182.456L364.807 199.546C365.123 201.352 364.98 203.052 364.38 204.646C363.811 206.234 362.877 207.565 361.576 208.639C360.275 209.713 358.688 210.413 356.817 210.741L354.305 211.18ZM354.305 211.18C353.977 211.237 353.69 211.051 353.446 210.62C353.195 210.156 353.001 209.53 352.863 208.742C352.725 207.954 352.698 207.316 352.782 206.827C352.86 206.306 353.063 206.017 353.391 205.959L354.305 211.18ZM377.241 207.167C376.026 207.38 375.128 207.181 374.548 206.572C373.962 205.93 373.597 205.199 373.454 204.378L369.619 182.461C369.412 181.279 369.115 180.451 368.727 179.977C368.34 179.504 367.951 179.216 367.561 179.115C367.171 179.015 366.869 178.932 366.655 178.868C366.609 178.605 366.655 178.191 366.793 177.626C366.964 177.054 367.291 176.506 367.774 175.982C368.291 175.452 369.042 175.1 370.027 174.928C370.979 174.761 371.846 174.88 372.627 175.285C373.436 175.651 374.114 176.243 374.664 177.061C375.213 177.878 375.588 178.862 375.789 180.011L379.873 203.356C380.006 204.111 379.905 204.89 379.572 205.693C379.233 206.463 378.456 206.954 377.241 207.167Z" fill="white"/>
</svg>
