<svg width="740" height="346" viewBox="0 0 740 346" fill="none" xmlns="http://www.w3.org/2000/svg">
<path d="M390.764 107.996C398.812 107.87 405.259 110.395 410.107 115.574C415.037 120.668 417.569 127.771 417.713 136.882L418.347 177.021L397.403 177.351L396.814 140.045C396.742 135.448 395.495 131.896 393.073 129.389C390.651 126.882 387.427 125.661 383.401 125.724C379.376 125.787 376.193 127.11 373.85 129.692C371.51 132.274 370.376 135.863 370.448 140.46L371.037 177.766L349.967 178.099L348.881 109.395L369.951 109.063L370.095 118.175C372.181 115.104 375.021 112.678 378.608 110.898C382.192 109.035 386.245 108.068 390.764 107.996ZM458.01 106.691C462.857 106.614 467.102 107.533 470.747 109.446C474.475 111.358 477.353 113.898 479.371 117.069L479.22 107.342L500.286 107.01L501.369 175.59C501.472 181.91 500.286 187.635 497.82 192.764C495.435 197.974 491.684 202.139 486.555 205.257C481.512 208.375 475.17 209.993 467.53 210.114C457.345 210.275 449.05 207.983 442.651 203.24C436.251 198.579 432.534 192.151 431.499 183.957L452.322 183.629C453.021 186.245 454.614 188.273 457.102 189.712C459.589 191.232 462.641 191.964 466.256 191.907C470.61 191.838 474.04 190.512 476.548 187.927C479.134 185.423 480.388 181.422 480.299 175.922L480.148 166.195C478.144 169.429 475.352 172.1 471.768 174.209C468.188 176.236 463.974 177.288 459.126 177.364C453.456 177.453 448.304 176.097 443.658 173.297C439.012 170.415 435.292 166.327 432.493 161.035C429.783 155.658 428.368 149.441 428.258 142.382C428.142 135.323 429.361 129.105 431.907 123.728C434.531 118.35 438.125 114.188 442.675 111.243C447.231 108.297 452.343 106.78 458.01 106.691ZM479.758 141.694C479.676 136.44 478.13 132.318 475.129 129.328C472.203 126.336 468.651 124.873 464.461 124.939C460.271 125.005 456.725 126.58 453.809 129.664C450.986 132.664 449.612 136.791 449.695 142.044C449.777 147.297 451.281 151.461 454.207 154.535C457.211 157.525 460.805 158.987 464.995 158.921C469.185 158.856 472.693 157.281 475.52 154.199C478.432 151.115 479.843 146.947 479.758 141.694ZM511.88 141.064C511.767 134.005 512.983 127.787 515.532 122.41C518.157 117.032 521.744 112.87 526.3 109.925C530.857 106.98 535.965 105.462 541.635 105.373C546.479 105.297 550.728 106.215 554.373 108.128C558.1 110.04 560.971 112.581 562.996 115.751L562.842 106.024L583.912 105.692L584.998 174.395L563.925 174.728L563.774 165.001C561.77 168.234 558.936 170.865 555.271 172.893C551.69 174.92 547.476 175.972 542.629 176.048C537.041 176.136 531.922 174.78 527.283 171.98C522.631 169.097 518.914 165.01 516.118 159.717C513.401 154.341 511.99 148.123 511.88 141.064ZM563.383 140.375C563.301 135.122 561.756 131 558.755 128.01C555.829 125.019 552.273 123.556 548.083 123.622C543.896 123.687 540.347 125.262 537.435 128.346C534.612 131.346 533.238 135.473 533.32 140.726C533.402 145.98 534.906 150.143 537.829 153.217C540.833 156.208 544.431 157.67 548.621 157.604C552.811 157.538 556.319 155.963 559.145 152.881C562.054 149.798 563.466 145.629 563.383 140.375ZM631.547 174.647C624.812 174.753 618.71 173.413 613.245 170.625C607.86 167.836 603.567 163.799 600.36 158.513C597.239 153.225 595.619 147.011 595.509 139.87C595.396 132.811 596.859 126.589 599.894 121.204C602.93 115.737 607.137 111.525 612.512 108.567C617.891 105.608 623.945 104.076 630.68 103.97C637.416 103.864 643.518 105.204 648.986 107.992C654.45 110.779 658.784 114.857 661.994 120.226C665.201 125.512 666.856 131.684 666.965 138.743C667.082 145.803 665.578 152.066 662.457 157.534C659.421 162.919 655.173 167.091 649.715 170.05C644.34 173.009 638.283 174.541 631.547 174.647ZM631.259 156.425C635.285 156.362 638.67 154.83 641.417 151.831C644.247 148.831 645.614 144.581 645.529 139.081C645.443 133.582 643.98 129.377 641.143 126.466C638.382 123.553 634.994 122.129 630.968 122.193C626.86 122.257 623.475 123.788 620.81 126.786C618.145 129.702 616.86 133.95 616.946 139.532C617.031 145.032 618.412 149.238 621.091 152.151C623.845 155.064 627.234 156.488 631.259 156.425ZM706.673 173.464C700.677 173.558 695.322 172.616 690.605 170.638C685.891 168.659 682.153 165.927 679.384 162.44C676.62 158.871 675.033 154.873 674.636 150.446L695.459 150.118C695.744 152.494 696.881 154.406 698.878 155.852C700.869 157.299 703.305 157.999 706.183 157.954C708.811 157.912 710.815 157.388 712.195 156.381C713.658 155.291 714.374 153.925 714.347 152.283C714.32 150.313 713.268 148.893 711.202 148.022C709.129 147.069 705.789 146.055 701.171 144.978C696.223 143.907 692.095 142.781 688.796 141.602C685.486 140.34 682.622 138.374 680.196 135.703C677.771 132.949 676.52 129.233 676.448 124.555C676.387 120.615 677.397 117.027 679.484 113.792C681.646 110.474 684.811 107.838 688.967 105.884C693.208 103.929 698.245 102.905 704.079 102.814C712.702 102.677 719.513 104.705 724.508 108.896C729.586 113.085 732.553 118.703 733.402 125.751L713.936 126.058C713.569 123.682 712.469 121.811 710.643 120.444C708.896 119.076 706.584 118.415 703.709 118.46C701.242 118.499 699.362 119.021 698.067 120.027C696.768 120.95 696.127 122.233 696.155 123.875C696.182 125.845 697.234 127.306 699.307 128.259C701.455 129.21 704.758 130.143 709.208 131.058C714.323 132.291 718.492 133.539 721.716 134.802C724.937 135.983 727.763 137.991 730.189 140.826C732.7 143.579 734.029 147.334 734.187 152.094C734.252 156.116 733.159 159.746 730.908 162.983C728.74 166.137 725.536 168.65 721.291 170.524C717.132 172.396 712.257 173.376 706.673 173.464Z" fill="white"/>
<path d="M90.2949 42.5174L120.476 0L163.067 32.9621L132.886 75.4794L90.2949 42.5174Z" fill="white"/>
<path d="M295.743 206.03C240.931 449.734 -148.901 349.808 62.1153 92.4789C-60.2014 306.542 240.862 268.303 270.258 184.102C273.55 174.674 230.935 111.218 207.15 79.029C206.93 65.0762 222.98 20.1631 236.635 0.40918C247.937 8.60484 288.221 83.3338 294.598 133.476L297.919 166.919L295.743 206.03Z" fill="white"/>
<path d="M513.682 218.3C513.682 215.461 511.382 213.159 508.543 213.159C505.705 213.159 503.404 215.461 503.404 218.3V297.125C503.404 299.964 505.705 302.266 508.543 302.266C511.382 302.266 513.682 299.964 513.682 297.125V218.3Z" fill="white"/>
<path d="M541.948 219.945C544.483 219.945 546.7 220.448 548.594 221.453C550.489 222.458 551.952 223.875 552.98 225.702C554.031 227.508 554.556 229.598 554.556 231.974C554.556 234.328 554.031 236.418 552.98 238.246C551.952 240.074 550.479 241.49 548.56 242.496C546.666 243.501 544.459 244.004 541.948 244.004H532.938V219.945H541.948ZM541.571 238.931C543.788 238.931 545.511 238.326 546.744 237.115C547.978 235.904 548.594 234.191 548.594 231.974C548.594 229.758 547.978 228.033 546.744 226.799C545.511 225.565 543.788 224.948 541.571 224.948H538.796V238.931H541.571ZM560.777 222.892C559.749 222.892 558.903 222.595 558.242 222.001C557.601 221.384 557.283 220.63 557.283 219.739C557.283 218.825 557.601 218.071 558.242 217.477C558.903 216.86 559.749 216.552 560.777 216.552C561.781 216.552 562.603 216.86 563.244 217.477C563.905 218.071 564.238 218.825 564.238 219.739C564.238 220.63 563.905 221.384 563.244 222.001C562.603 222.595 561.781 222.892 560.777 222.892ZM563.689 224.88V244.004H557.831V224.88H563.689ZM592.327 224.674C594.702 224.674 596.586 225.394 597.98 226.833C599.395 228.273 600.104 230.272 600.104 232.831V244.004H594.28V233.619C594.28 232.385 593.948 231.437 593.287 230.775C592.646 230.089 591.755 229.747 590.614 229.747C589.474 229.747 588.569 230.089 587.908 230.775C587.267 231.437 586.949 232.385 586.949 233.619V244.004H581.124V233.619C581.124 232.385 580.792 231.437 580.131 230.775C579.49 230.089 578.599 229.747 577.459 229.747C576.318 229.747 575.413 230.089 574.752 230.775C574.111 231.437 573.793 232.385 573.793 233.619V244.004H567.934V224.88H573.793V227.279C574.385 226.479 575.163 225.851 576.122 225.394C577.082 224.914 578.168 224.674 579.377 224.674C580.816 224.674 582.094 224.983 583.214 225.6C584.355 226.217 585.246 227.096 585.886 228.239C586.548 227.187 587.452 226.331 588.593 225.668C589.734 225.006 590.981 224.674 592.327 224.674ZM603.037 234.407C603.037 232.443 603.4 230.717 604.133 229.232C604.887 227.747 605.901 226.605 607.183 225.805C608.46 225.006 609.889 224.606 611.465 224.606C612.811 224.606 613.987 224.88 614.994 225.428C616.022 225.977 616.81 226.696 617.358 227.587V224.88H623.216V244.004H617.358V241.296C616.786 242.187 615.987 242.907 614.96 243.455C613.952 244.004 612.777 244.278 611.431 244.278C609.875 244.278 608.46 243.878 607.183 243.078C605.901 242.256 604.887 241.102 604.133 239.617C603.4 238.109 603.037 236.372 603.037 234.407ZM617.358 234.442C617.358 232.979 616.947 231.826 616.124 230.98C615.323 230.135 614.343 229.712 613.178 229.712C612.013 229.712 611.02 230.135 610.197 230.98C609.396 231.803 608.998 232.945 608.998 234.407C608.998 235.87 609.396 237.035 610.197 237.903C611.02 238.749 612.013 239.171 613.178 239.171C614.343 239.171 615.323 238.749 616.124 237.903C616.947 237.058 617.358 235.904 617.358 234.442ZM639.103 224.674C641.34 224.674 643.121 225.405 644.447 226.868C645.794 228.307 646.469 230.295 646.469 232.831V244.004H640.644V233.619C640.644 232.34 640.312 231.346 639.651 230.638C638.99 229.929 638.099 229.575 636.979 229.575C635.858 229.575 634.967 229.929 634.306 230.638C633.645 231.346 633.313 232.34 633.313 233.619V244.004H627.454V224.88H633.313V227.416C633.905 226.571 634.707 225.908 635.711 225.428C636.715 224.926 637.845 224.674 639.103 224.674ZM649.374 234.407C649.374 232.443 649.74 230.717 650.47 229.232C651.224 227.747 652.241 226.605 653.519 225.805C654.801 225.006 656.226 224.606 657.802 224.606C659.152 224.606 660.327 224.88 661.331 225.428C662.358 225.977 663.146 226.696 663.695 227.587V224.88H669.553V244.004H663.695V241.296C663.126 242.187 662.324 242.907 661.296 243.455C660.293 244.004 659.117 244.278 657.768 244.278C656.216 244.278 654.801 243.878 653.519 243.078C652.241 242.256 651.224 241.102 650.47 239.617C649.74 238.109 649.374 236.372 649.374 234.407ZM663.695 234.442C663.695 232.979 663.283 231.826 662.461 230.98C661.663 230.135 660.68 229.712 659.515 229.712C658.35 229.712 657.356 230.135 656.534 230.98C655.736 231.803 655.335 232.945 655.335 234.407C655.335 235.87 655.736 237.035 656.534 237.903C657.356 238.749 658.35 239.171 659.515 239.171C660.68 239.171 661.663 238.749 662.461 237.903C663.283 237.058 663.695 235.904 663.695 234.442ZM679.649 227.587C680.222 226.696 681.01 225.977 682.013 225.428C683.021 224.88 684.196 224.606 685.542 224.606C687.118 224.606 688.547 225.006 689.825 225.805C691.106 226.605 692.11 227.747 692.84 229.232C693.593 230.717 693.97 232.443 693.97 234.407C693.97 236.372 693.593 238.109 692.84 239.617C692.11 241.102 691.106 242.256 689.825 243.078C688.547 243.878 687.118 244.278 685.542 244.278C684.22 244.278 683.041 244.004 682.013 243.455C681.01 242.907 680.222 242.199 679.649 241.33V253.12H673.791V224.88H679.649V227.587ZM688.009 234.407C688.009 232.945 687.598 231.803 686.776 230.98C685.977 230.135 684.984 229.712 683.795 229.712C682.63 229.712 681.637 230.135 680.814 230.98C680.016 231.826 679.615 232.979 679.615 234.442C679.615 235.904 680.016 237.058 680.814 237.903C681.637 238.749 682.63 239.171 683.795 239.171C684.96 239.171 685.953 238.749 686.776 237.903C687.598 237.035 688.009 235.87 688.009 234.407ZM715.921 224.88V244.004H710.062V241.399C709.47 242.244 708.658 242.93 707.63 243.455C706.626 243.958 705.506 244.209 704.272 244.209C702.813 244.209 701.521 243.889 700.401 243.25C699.284 242.587 698.414 241.639 697.797 240.405C697.18 239.171 696.872 237.721 696.872 236.053V224.88H702.696V235.264C702.696 236.544 703.029 237.538 703.69 238.246C704.354 238.954 705.245 239.308 706.362 239.308C707.506 239.308 708.407 238.954 709.069 238.246C709.733 237.538 710.062 236.544 710.062 235.264V224.88H715.921ZM731.78 224.674C734.017 224.674 735.798 225.405 737.124 226.868C738.471 228.307 739.146 230.295 739.146 232.831V244.004H733.321V233.619C733.321 232.34 732.989 231.346 732.328 230.638C731.663 229.929 730.772 229.575 729.656 229.575C728.535 229.575 727.644 229.929 726.983 230.638C726.319 231.346 725.99 232.34 725.99 233.619V244.004H720.131V224.88H725.99V227.416C726.582 226.571 727.381 225.908 728.388 225.428C729.392 224.926 730.522 224.674 731.78 224.674ZM547.498 283.074C548.892 283.371 550.009 284.067 550.856 285.164C551.702 286.238 552.123 287.472 552.123 288.865C552.123 290.876 551.414 292.475 549.999 293.664C548.605 294.829 546.652 295.411 544.141 295.411H532.938V271.353H543.764C546.206 271.353 548.115 271.912 549.485 273.032C550.88 274.152 551.575 275.671 551.575 277.59C551.575 279.006 551.198 280.183 550.444 281.12C549.715 282.057 548.731 282.708 547.498 283.074ZM538.796 281.086H542.633C543.592 281.086 544.322 280.88 544.826 280.469C545.35 280.035 545.614 279.406 545.614 278.584C545.614 277.761 545.35 277.133 544.826 276.699C544.322 276.265 543.592 276.048 542.633 276.048H538.796V281.086ZM543.113 290.682C544.096 290.682 544.85 290.465 545.374 290.031C545.922 289.574 546.196 288.923 546.196 288.077C546.196 287.232 545.912 286.569 545.34 286.089C544.792 285.61 544.028 285.37 543.044 285.37H538.796V290.682H543.113ZM558.468 274.3C557.44 274.3 556.594 274.003 555.933 273.409C555.292 272.792 554.974 272.038 554.974 271.147C554.974 270.233 555.292 269.479 555.933 268.885C556.594 268.268 557.44 267.96 558.468 267.96C559.472 267.96 560.294 268.268 560.935 268.885C561.596 269.479 561.928 270.233 561.928 271.147C561.928 272.038 561.596 272.792 560.935 273.409C560.294 274.003 559.472 274.3 558.468 274.3ZM561.38 276.288V295.411H555.522V276.288H561.38ZM573.402 295.686C571.734 295.686 570.25 295.4 568.948 294.829C567.646 294.257 566.619 293.481 565.865 292.498C565.111 291.493 564.69 290.373 564.597 289.14H570.387C570.456 289.802 570.764 290.339 571.312 290.75C571.86 291.162 572.535 291.367 573.334 291.367C574.063 291.367 574.625 291.23 575.012 290.956C575.423 290.659 575.629 290.282 575.629 289.825C575.629 289.277 575.345 288.877 574.772 288.626C574.2 288.351 573.275 288.054 571.997 287.734C570.627 287.415 569.486 287.083 568.571 286.741C567.657 286.375 566.869 285.815 566.207 285.061C565.546 284.284 565.214 283.245 565.214 281.943C565.214 280.846 565.512 279.852 566.105 278.961C566.721 278.047 567.612 277.327 568.777 276.802C569.966 276.276 571.371 276.014 572.991 276.014C575.389 276.014 577.273 276.607 578.644 277.796C580.038 278.984 580.837 280.56 581.042 282.525H575.629C575.536 281.863 575.242 281.337 574.738 280.949C574.259 280.56 573.618 280.366 572.82 280.366C572.134 280.366 571.61 280.503 571.244 280.777C570.877 281.029 570.696 281.383 570.696 281.84C570.696 282.388 570.98 282.799 571.552 283.074C572.145 283.348 573.059 283.622 574.293 283.896C575.708 284.262 576.862 284.627 577.753 284.993C578.644 285.335 579.422 285.907 580.083 286.706C580.768 287.483 581.121 288.534 581.145 289.859C581.145 290.979 580.826 291.984 580.186 292.875C579.569 293.743 578.668 294.429 577.479 294.932C576.314 295.434 574.954 295.686 573.402 295.686ZM583.564 285.815C583.564 283.85 583.93 282.125 584.66 280.64C585.414 279.155 586.431 278.013 587.709 277.213C588.99 276.413 590.416 276.014 591.992 276.014C593.341 276.014 594.517 276.288 595.52 276.836C596.548 277.384 597.336 278.104 597.884 278.995V276.288H603.743V295.411H597.884V292.704C597.316 293.595 596.514 294.315 595.486 294.863C594.482 295.411 593.307 295.686 591.957 295.686C590.405 295.686 588.99 295.286 587.709 294.486C586.431 293.664 585.414 292.51 584.66 291.025C583.93 289.517 583.564 287.78 583.564 285.815ZM597.884 285.85C597.884 284.387 597.473 283.234 596.651 282.388C595.853 281.543 594.869 281.12 593.705 281.12C592.54 281.12 591.546 281.543 590.724 282.388C589.926 283.211 589.525 284.353 589.525 285.815C589.525 287.278 589.926 288.443 590.724 289.311C591.546 290.156 592.54 290.579 593.705 290.579C594.869 290.579 595.853 290.156 596.651 289.311C597.473 288.466 597.884 287.312 597.884 285.85ZM636.756 295.411H630.897L621.099 280.572V295.411H615.241V271.353H621.099L630.897 286.261V271.353H636.756V295.411ZM648.267 276.014C649.614 276.014 650.792 276.288 651.796 276.836C652.824 277.384 653.612 278.104 654.16 278.995V276.288H660.018V295.377C660.018 297.136 659.666 298.724 658.956 300.141C658.271 301.58 657.209 302.723 655.77 303.568C654.355 304.414 652.584 304.836 650.46 304.836C647.627 304.836 645.331 304.162 643.574 302.814C641.816 301.489 640.809 299.684 640.559 297.399H646.349C646.53 298.13 646.965 298.701 647.651 299.113C648.336 299.547 649.182 299.764 650.186 299.764C651.395 299.764 652.354 299.41 653.064 298.701C653.793 298.016 654.16 296.908 654.16 295.377V292.67C653.588 293.561 652.8 294.292 651.796 294.863C650.792 295.411 649.614 295.686 648.267 295.686C646.691 295.686 645.263 295.286 643.985 294.486C642.707 293.664 641.689 292.51 640.936 291.025C640.206 289.517 639.839 287.78 639.839 285.815C639.839 283.85 640.206 282.125 640.936 280.64C641.689 279.155 642.707 278.013 643.985 277.213C645.263 276.413 646.691 276.014 648.267 276.014ZM654.16 285.85C654.16 284.387 653.749 283.234 652.927 282.388C652.128 281.543 651.145 281.12 649.98 281.12C648.815 281.12 647.822 281.543 647 282.388C646.201 283.211 645.801 284.353 645.801 285.815C645.801 287.278 646.201 288.443 647 289.311C647.822 290.156 648.815 290.579 649.98 290.579C651.145 290.579 652.128 290.156 652.927 289.311C653.749 288.466 654.16 287.312 654.16 285.85ZM663.092 285.815C663.092 283.85 663.458 282.125 664.188 280.64C664.942 279.155 665.959 278.013 667.237 277.213C668.515 276.413 669.944 276.014 671.52 276.014C672.866 276.014 674.045 276.288 675.048 276.836C676.076 277.384 676.864 278.104 677.412 278.995V276.288H683.271V295.411H677.412V292.704C676.84 293.595 676.042 294.315 675.014 294.863C674.01 295.411 672.832 295.686 671.485 295.686C669.933 295.686 668.515 295.286 667.237 294.486C665.959 293.664 664.942 292.51 664.188 291.025C663.458 289.517 663.092 287.78 663.092 285.815ZM677.412 285.85C677.412 284.387 677.001 283.234 676.179 282.388C675.381 281.543 674.397 281.12 673.233 281.12C672.068 281.12 671.074 281.543 670.252 282.388C669.454 283.211 669.053 284.353 669.053 285.815C669.053 287.278 669.454 288.443 670.252 289.311C671.074 290.156 672.068 290.579 673.233 290.579C674.397 290.579 675.381 290.156 676.179 289.311C677.001 288.466 677.412 287.312 677.412 285.85ZM690.421 274.3C689.393 274.3 688.55 274.003 687.886 273.409C687.248 272.792 686.926 272.038 686.926 271.147C686.926 270.233 687.248 269.479 687.886 268.885C688.55 268.268 689.393 267.96 690.421 267.96C691.428 267.96 692.25 268.268 692.888 268.885C693.552 269.479 693.881 270.233 693.881 271.147C693.881 272.038 693.552 272.792 692.888 273.409C692.25 274.003 691.428 274.3 690.421 274.3ZM693.367 297.879C693.367 300.232 692.775 301.923 691.586 302.951C690.4 304.002 688.742 304.528 686.618 304.528H684.323V299.558H685.727C686.368 299.558 686.824 299.432 687.098 299.181C687.372 298.93 687.509 298.519 687.509 297.947V276.288H693.367V297.879ZM700.528 274.3C699.5 274.3 698.654 274.003 697.992 273.409C697.352 272.792 697.033 272.038 697.033 271.147C697.033 270.233 697.352 269.479 697.992 268.885C698.654 268.268 699.5 267.96 700.528 267.96C701.531 267.96 702.354 268.268 702.994 268.885C703.656 269.479 703.988 270.233 703.988 271.147C703.988 272.038 703.656 272.792 702.994 273.409C702.354 274.003 701.531 274.3 700.528 274.3ZM703.44 276.288V295.411H697.581V276.288H703.44Z" fill="white"/>
<path d="M353.295 281.806C351.195 281.806 349.469 281.2 348.115 279.986C346.809 278.726 346.155 277.186 346.155 275.366C346.155 273.5 346.809 271.936 348.115 270.676C349.469 269.416 351.195 268.786 353.295 268.786C355.349 268.786 357.029 269.416 358.335 270.676C359.689 271.936 360.365 273.5 360.365 275.366C360.365 277.186 359.689 278.726 358.335 279.986C357.029 281.2 355.349 281.806 353.295 281.806ZM373.471 238.126C371.371 238.126 369.645 237.52 368.291 236.306C366.985 235.046 366.331 233.506 366.331 231.686C366.331 229.82 366.985 228.28 368.291 227.066C369.645 225.806 371.371 225.176 373.471 225.176C375.525 225.176 377.205 225.806 378.511 227.066C379.865 228.28 380.541 229.82 380.541 231.686C380.541 233.506 379.865 235.046 378.511 236.306C377.205 237.52 375.525 238.126 373.471 238.126ZM379.421 242.186V281.246H367.451V242.186H379.421ZM385.716 261.646C385.716 257.633 386.463 254.11 387.956 251.076C389.496 248.043 391.573 245.71 394.186 244.076C396.799 242.443 399.716 241.626 402.936 241.626C405.503 241.626 407.836 242.163 409.936 243.236C412.083 244.31 413.763 245.756 414.976 247.576V229.446H426.946V281.246H414.976V275.646C413.856 277.513 412.246 279.006 410.146 280.126C408.093 281.246 405.689 281.806 402.936 281.806C399.716 281.806 396.799 280.99 394.186 279.356C391.573 277.676 389.496 275.32 387.956 272.286C386.463 269.206 385.716 265.66 385.716 261.646ZM414.976 261.716C414.976 258.73 414.136 256.373 412.456 254.646C410.823 252.92 408.816 252.056 406.436 252.056C404.056 252.056 402.026 252.92 400.346 254.646C398.713 256.326 397.896 258.66 397.896 261.646C397.896 264.633 398.713 267.013 400.346 268.786C402.026 270.513 404.056 271.376 406.436 271.376C408.816 271.376 410.823 270.513 412.456 268.786C414.136 267.06 414.976 264.703 414.976 261.716ZM459.406 241.766C463.979 241.766 467.619 243.26 470.326 246.246C473.079 249.186 474.456 253.246 474.456 258.426V281.246H462.556V260.036C462.556 257.423 461.879 255.393 460.526 253.946C459.172 252.5 457.352 251.776 455.066 251.776C452.779 251.776 450.959 252.5 449.606 253.946C448.252 255.393 447.576 257.423 447.576 260.036V281.246H435.606V242.186H447.576V247.366C448.789 245.64 450.422 244.286 452.476 243.306C454.529 242.28 456.839 241.766 459.406 241.766Z" fill="white"/>
</svg>
